<svg xmlns="http://www.w3.org/2000/svg" id="Layer_1" viewBox="0 0 458.27 207.57">
  <defs>
    <style>
      .cls-1 {
        fill: #ffffff;
      }
    </style>
  </defs>
  <g id="Group_34">
    <g id="Group_33">
      <g id="Group_32">
        <path id="Path_41" class="cls-1" d="M260.38,207.57v-4.72h10.41v4.72h10.41v-4.72h31.25v-4.72h20.83v-4.72h20.83v-4.72h10.41v-4.72h20.83v-9.43h10.42v-4.72h20.83v-9.43h10.42v-9.44h10.42v-9.43h10.42v-23.59h10.42v-28.3h-10.42v-23.59h-10.42v-9.44h-10.41v-9.43h-10.41v-4.72h-10.42v-9.43h-20.83v-4.72h-10.41v-4.72h-10.42v-4.72h-20.83v-4.72h-10.42v-4.72h-31.24v-4.72h-20.83V0h-10.42v4.72h-10.41V0h-72.9v4.72h-41.66v4.72h-20.83v4.72h-10.41v4.72h-20.83v4.72h-10.42v4.72h-20.83v9.43h-10.42v4.72h-10.42v4.72h-10.42v4.72h-10.41v14.15h-10.42v14.15H0v4.72h10.42v4.72H0v28.3h10.42v4.72H0v4.72h10.42v14.15h10.42v9.43h10.42v4.72h10.42v9.43h10.42v4.72h10.42v4.72h10.42v9.43h20.83v4.71h10.42v4.72h20.83v4.72h31.25v4.72h20.83v4.72h10.42v-4.72h10.41v4.72h62.49ZM260.38,174.55h-10.41v14.15h-10.41v4.72h-20.83v-4.72h-10.42v-14.15h-10.41v-14.15h10.42v4.72h10.42v-4.72h20.83v4.72h10.41v-4.72h10.41v14.15ZM322.87,169.83h-10.41v9.44h-10.42v4.72h-20.83v4.71h-10.42v-9.43h10.41v-9.44h10.42v-9.43h10.41v4.72h10.41v-4.72h10.42v9.43ZM322.87,155.68v-4.72h-31.24v-14.15h10.41v-4.72h-10.41v-4.72h10.41v-18.87h62.49v4.72h-10.41v28.3h-10.41v9.43h-10.42v4.72h-10.41ZM374.95,169.83h-10.42v4.72h-10.41v4.72h-10.41v4.72h-10.42v-4.72h10.42v-9.44h10.41v-4.72h20.83v4.72ZM427.02,136.81h-10.41v4.72h-10.42v14.15h-41.66v-9.44h10.42v-14.15h10.42v-14.15h-10.41v-4.72h10.41v-4.72h41.66v28.31ZM406.19,51.89v9.43h10.42v14.15h10.42v23.59h-41.66v-9.43h-10.41v-4.72h10.41v-9.43h-10.41v-14.15h-10.42v-9.43h41.66ZM333.28,28.31h20.83v4.72h10.41v4.72h10.42v4.72h-31.24v-9.43h-10.42v-4.72ZM343.7,56.61v14.15h10.41v9.44h10.41v4.72h-10.41v14.15h-52.08v-4.72h-10.41v-4.72h10.41v-9.44h-10.41v-23.58h31.24v-4.72h10.41v4.72h10.42ZM270.79,18.87h20.84v4.72h10.41v4.72h10.41v9.43h10.42v4.72h-41.66v-18.87h-10.42v-4.72ZM197.89,28.31h10.42v-4.72h10.42v-9.43h20.83v4.72h10.41v14.15h10.41v14.15h-20.83v-4.72h-10.42v4.72h-10.41v-4.72h-10.42v4.72h-10.41v-18.87ZM270.79,56.61v9.44h-10.41v4.72h10.41v18.88h10.41v4.72h-10.41v4.72h-83.32v-4.72h-10.42v-4.72h10.42v-33.02h83.32ZM135.4,33.02h10.42v-4.72h10.42v-4.72h20.83v-4.72h10.42v9.44h-10.42v14.15h-31.24v4.72h-10.42v-14.15ZM135.4,56.61v-4.72h10.42v4.72h20.83v9.44h-10.41v4.72h10.41v9.43h-10.41v4.72h10.41v4.72h-10.41v9.43h-52.08v-4.72h-10.42v-4.72h10.42v-23.59h10.41v-9.44h20.83ZM166.64,136.81v14.15h-20.83v4.72h-10.42v-4.72h-20.83v-9.43h-10.41v-28.3h-10.42v-4.72h62.49v9.44h10.41v4.72h-10.41v14.15h10.41ZM83.32,37.74h10.42v-4.72h10.42v-4.72h10.41v9.43h-10.41v4.72h-20.83v-4.72ZM31.24,70.76h10.42v-9.44h10.42v-9.43h41.66v9.43h-10.42v9.44h-10.42v4.72h10.42v4.71h-10.42v4.72h10.42v4.72h-10.42v9.43H31.24v-28.3ZM52.08,155.68v-14.15h-10.42v-9.44h-10.42v-23.59h41.66v18.87h10.42v18.87h10.42v9.44h-41.66ZM124.98,179.26h-20.83v-4.72h-10.42v-9.44h10.42v4.72h10.41v4.72h10.41v4.72ZM187.47,188.69h-20.83v-4.72h-10.41v-4.71h-10.42v-9.44h-10.42v-9.43h10.42v4.72h31.24v18.87h10.42v4.71ZM187.47,150.95v-4.71h10.41v-4.72h-10.41v-14.15h-10.42v-4.72h10.42v-14.15h83.32v4.72h10.41v4.72h-10.41v33.02h-83.32Z"/>
      </g>
    </g>
  </g>
</svg>