<svg xmlns="http://www.w3.org/2000/svg" xmlns:xlink="http://www.w3.org/1999/xlink" width="369.015" height="333.991" viewBox="0 0 369.015 333.991">
  <defs>
    <clipPath id="clip-path">
      <path id="Path_1155" data-name="Path 1155" d="M0,204.024H369.015V-129.967H0Z" transform="translate(0 129.967)" fill="#fff"/>
    </clipPath>
  </defs>
  <g id="Group_1825" data-name="Group 1825" transform="translate(0 129.967)">
    <g id="Group_1811" data-name="Group 1811" transform="translate(0 -129.967)" clip-path="url(#clip-path)">
      <g id="Group_1805" data-name="Group 1805" transform="translate(12.487 144.676)">
        <path id="Path_1149" data-name="Path 1149" d="M0,9.166H2.565V2.659h6.63V.565H2.565V-3.272H10.12V-5.49H0Zm12.376,0h2.565V3.132h3.778a3.91,3.91,0,0,1,1.447.226,1.908,1.908,0,0,1,.894.707,3.043,3.043,0,0,1,.45,1.21,10.593,10.593,0,0,1,.123,1.735c0,.357.018.727.051,1.11a2.362,2.362,0,0,0,.339,1.046h2.75a3.091,3.091,0,0,1-.6-1.508,12.9,12.9,0,0,1-.2-2.351,4.126,4.126,0,0,0-.216-1.437,2.856,2.856,0,0,0-.545-.933,2.116,2.116,0,0,0-.707-.524,2.737,2.737,0,0,0-.709-.206V2.166a6.29,6.29,0,0,0,.586-.244,2.8,2.8,0,0,0,.809-.606,3.771,3.771,0,0,0,.72-1.108,4.261,4.261,0,0,0,.308-1.735,3.645,3.645,0,0,0-1.213-2.914A5.419,5.419,0,0,0,19.376-5.49h-7ZM14.941-3.4h4.168a5.506,5.506,0,0,1,.953.082,2.075,2.075,0,0,1,.822.329,1.66,1.66,0,0,1,.563.686,2.7,2.7,0,0,1,.206,1.141A2.262,2.262,0,0,1,21.019.6a2.67,2.67,0,0,1-1.868.586H14.941ZM25.328,9.166h2.647l1.375-3.88H35.2l1.375,3.88h2.75L33.683-5.49H30.951Zm6.936-12.13h.062l2.2,6.3H30.049Zm8.622,12.13h2.441V-2.144h.041l4.065,11.31h2.115l4.063-11.31h.041V9.166h2.441V-5.49H52.524L48.582,5.985h-.041L44.5-5.49H40.886Zm18.492,0h10.7V6.948H61.945V2.659h7.388V.565H61.945V-3.272H69.93V-5.49H59.378Zm13.137,0H82.532V6.948H75.08V-5.49H72.515Zm11.986,0H95.194V6.948H87.068V2.659h7.388V.565H87.068V-3.272h7.984V-5.49H84.5ZM96.754,4.281a5.457,5.457,0,0,0,.514,2.351,4.629,4.629,0,0,0,1.313,1.632,5.547,5.547,0,0,0,1.93.943,8.784,8.784,0,0,0,2.362.308,8.989,8.989,0,0,0,2.133-.257,5.761,5.761,0,0,0,1.868-.812A4.219,4.219,0,0,0,108.2,7.02a4.126,4.126,0,0,0,.5-2.1,3.987,3.987,0,0,0-.175-1.151,3.7,3.7,0,0,0-.535-1.077A3.966,3.966,0,0,0,107.1,1.8a4.344,4.344,0,0,0-1.252-.617c-.193-.054-.511-.139-.956-.257s-.9-.236-1.365-.36-.887-.234-1.262-.337-.591-.162-.648-.175a3.123,3.123,0,0,1-1.262-.668,1.572,1.572,0,0,1-.483-1.221,1.582,1.582,0,0,1,.257-.923,1.911,1.911,0,0,1,.648-.586,2.932,2.932,0,0,1,.861-.308,4.825,4.825,0,0,1,.925-.093,3.817,3.817,0,0,1,2.195.586,2.474,2.474,0,0,1,.966,2h2.565a4.337,4.337,0,0,0-.452-2.022,4.355,4.355,0,0,0-1.221-1.467,5.328,5.328,0,0,0-1.786-.894,7.67,7.67,0,0,0-2.164-.3,7.613,7.613,0,0,0-1.95.257,5.374,5.374,0,0,0-1.724.792,4.107,4.107,0,0,0-1.221,1.344,3.805,3.805,0,0,0-.463,1.92A4.192,4.192,0,0,0,97.463-.4,3.1,3.1,0,0,0,97.987.647a3.725,3.725,0,0,0,.995.894,5.388,5.388,0,0,0,1.57.645q1.519.412,2.554.668a17.289,17.289,0,0,1,1.817.545,2.159,2.159,0,0,1,.833.563,1.758,1.758,0,0,1,.378,1.241,2.149,2.149,0,0,1-.162.812,1.828,1.828,0,0,1-.535.709,2.928,2.928,0,0,1-.964.5,4.628,4.628,0,0,1-1.439.2,5.624,5.624,0,0,1-1.447-.175,3.418,3.418,0,0,1-1.18-.553,2.585,2.585,0,0,1-.8-.977,3.262,3.262,0,0,1-.288-1.437Zm13.507,0a5.42,5.42,0,0,0,.514,2.351,4.6,4.6,0,0,0,1.313,1.632,5.534,5.534,0,0,0,1.927.943,8.784,8.784,0,0,0,2.362.308,9.026,9.026,0,0,0,2.136-.257,5.771,5.771,0,0,0,1.866-.812A4.252,4.252,0,0,0,121.7,7.02a4.152,4.152,0,0,0,.5-2.1,3.9,3.9,0,0,0-.175-1.151A3.692,3.692,0,0,0,121.5,2.69,3.926,3.926,0,0,0,120.6,1.8a4.311,4.311,0,0,0-1.251-.617c-.193-.054-.509-.139-.953-.257s-.9-.236-1.365-.36-.887-.234-1.264-.337-.591-.162-.645-.175a3.106,3.106,0,0,1-1.262-.668,1.563,1.563,0,0,1-.483-1.221,1.564,1.564,0,0,1,.257-.923,1.879,1.879,0,0,1,.645-.586,2.922,2.922,0,0,1,.863-.308,4.779,4.779,0,0,1,.923-.093,3.832,3.832,0,0,1,2.2.586,2.48,2.48,0,0,1,.964,2H121.8a4.337,4.337,0,0,0-.452-2.022,4.385,4.385,0,0,0-1.221-1.467,5.376,5.376,0,0,0-1.786-.894,7.7,7.7,0,0,0-2.166-.3,7.643,7.643,0,0,0-1.95.257,5.374,5.374,0,0,0-1.724.792,4.107,4.107,0,0,0-1.221,1.344,3.805,3.805,0,0,0-.463,1.92A4.191,4.191,0,0,0,110.967-.4a3.105,3.105,0,0,0,.524,1.046,3.765,3.765,0,0,0,.995.894,5.418,5.418,0,0,0,1.57.645q1.519.412,2.557.668a17.477,17.477,0,0,1,1.817.545,2.132,2.132,0,0,1,.83.563,1.746,1.746,0,0,1,.38,1.241,2.1,2.1,0,0,1-.164.812,1.828,1.828,0,0,1-.535.709,2.9,2.9,0,0,1-.964.5,4.622,4.622,0,0,1-1.437.2,5.61,5.61,0,0,1-1.447-.175,3.417,3.417,0,0,1-1.18-.553,2.591,2.591,0,0,1-.8-.977,3.262,3.262,0,0,1-.288-1.437Z" transform="translate(0 5.839)" fill="#fff"/>
      </g>
      <g id="Group_1806" data-name="Group 1806" transform="translate(12.487 318.987)">
        <path id="Path_1150" data-name="Path 1150" d="M0,8.953H10.017V6.735H2.565V-5.7H0Zm11.986,0h10.7V6.735H14.553V2.446h7.388V.351H14.553V-3.485h7.984V-5.7H11.986Zm13.137,0H31.2a6.831,6.831,0,0,0,2.914-.576,5.379,5.379,0,0,0,2.012-1.57,6.691,6.691,0,0,0,1.159-2.328,10.327,10.327,0,0,0,.38-2.852,10.359,10.359,0,0,0-.38-2.855,6.691,6.691,0,0,0-1.159-2.328,5.4,5.4,0,0,0-2.012-1.57A6.831,6.831,0,0,0,31.2-5.7H25.123ZM27.687-3.609h2.526a6.388,6.388,0,0,1,2.452.4,3.576,3.576,0,0,1,1.5,1.108A4.019,4.019,0,0,1,34.9-.437a10.422,10.422,0,0,1,.2,2.064,10.4,10.4,0,0,1-.2,2.061,4,4,0,0,1-.74,1.663,3.58,3.58,0,0,1-1.5,1.11,6.441,6.441,0,0,1-2.452.4H27.687Z" transform="translate(0 5.703)" fill="#fff"/>
      </g>
      <g id="Group_1807" data-name="Group 1807" transform="translate(186.138 144.677)">
        <path id="Path_1151" data-name="Path 1151" d="M0,5.943A6.426,6.426,0,0,0,.432,8.405,4.722,4.722,0,0,0,1.652,10.16a5.1,5.1,0,0,0,1.9,1.059,8.212,8.212,0,0,0,2.462.347,8.229,8.229,0,0,0,2.464-.347,5.106,5.106,0,0,0,1.9-1.059A4.728,4.728,0,0,0,11.6,8.405a6.476,6.476,0,0,0,.429-2.462v-9.38H9.462V5.1c0,.491-.023.992-.072,1.5a3.43,3.43,0,0,1-.411,1.365,2.62,2.62,0,0,1-1.025.995,3.974,3.974,0,0,1-1.94.391,3.981,3.981,0,0,1-1.94-.391,2.62,2.62,0,0,1-1.025-.995A3.43,3.43,0,0,1,2.637,6.6c-.046-.506-.072-1.007-.072-1.5v-8.54H0Zm15.085,5.276h2.444V.441h.062l6.671,10.778H26.97V-3.437H24.526v10.8h-.041L17.8-3.437H15.085ZM28.818-1.219h4.639V11.219h2.565V-1.219H40.68V-3.437H28.818ZM42.59,11.219h2.565V-3.437H42.59Zm5.355-4.477h5.972V4.525H47.945Zm8.745,4.477h2.565V5.183h3.778a3.974,3.974,0,0,1,1.447.226,1.922,1.922,0,0,1,.892.709,3.029,3.029,0,0,1,.452,1.21,10.55,10.55,0,0,1,.123,1.735c0,.357.018.725.051,1.108a2.383,2.383,0,0,0,.339,1.048h2.75a3.09,3.09,0,0,1-.606-1.508,13.157,13.157,0,0,1-.2-2.351,4.121,4.121,0,0,0-.213-1.437,2.857,2.857,0,0,0-.545-.933,2.1,2.1,0,0,0-.709-.524,2.6,2.6,0,0,0-.707-.206V4.219a6.229,6.229,0,0,0,.583-.247,2.824,2.824,0,0,0,.812-.6,3.8,3.8,0,0,0,.72-1.11A4.29,4.29,0,0,0,68.532.524a3.651,3.651,0,0,0-1.21-2.914,5.436,5.436,0,0,0-3.634-1.046h-7ZM59.255-1.342h4.168a5.285,5.285,0,0,1,.953.082,2.046,2.046,0,0,1,.82.326,1.637,1.637,0,0,1,.565.689A2.717,2.717,0,0,1,65.967.894a2.269,2.269,0,0,1-.637,1.755,2.663,2.663,0,0,1-1.866.586H59.255ZM71.346,11.219H82.039V9H73.91V4.712H81.3V2.618H73.91V-1.219h7.984V-3.437H71.346Zm13.134,0h2.567V4.712h6.628V2.618H87.047V-1.219H94.6V-3.437H84.48Zm12.376,0h10.017V9h-7.45V-3.437H96.856Zm11.988,0h10.693V9h-8.128V4.712H118.8V2.618h-7.388V-1.219h7.984V-3.437H108.845Zm25.593-10A5.476,5.476,0,0,0,133.8-.892a5.161,5.161,0,0,0-1.344-1.57,6.058,6.058,0,0,0-1.92-.984,7.76,7.76,0,0,0-2.321-.339,6.8,6.8,0,0,0-2.945.617,6.545,6.545,0,0,0-2.2,1.663A7.341,7.341,0,0,0,121.681.935,9,9,0,0,0,121.2,3.89a9.054,9.054,0,0,0,.481,2.976,7.353,7.353,0,0,0,1.388,2.444,6.485,6.485,0,0,0,2.2,1.652,6.911,6.911,0,0,0,2.945.6,6.688,6.688,0,0,0,2.444-.429,5.736,5.736,0,0,0,1.927-1.223A5.9,5.9,0,0,0,133.9,8.038a6.937,6.937,0,0,0,.563-2.4h-2.5a5.829,5.829,0,0,1-.349,1.5,3.848,3.848,0,0,1-.738,1.221,3.375,3.375,0,0,1-1.131.822,3.648,3.648,0,0,1-1.519.3A4.083,4.083,0,0,1,126.2,9a3.97,3.97,0,0,1-1.388-1.262,5.685,5.685,0,0,1-.789-1.8,8.321,8.321,0,0,1,0-4.1,5.685,5.685,0,0,1,.789-1.8A3.97,3.97,0,0,1,126.2-1.219a4.083,4.083,0,0,1,2.02-.473,4.175,4.175,0,0,1,1.406.216,3.3,3.3,0,0,1,1.059.6,3.231,3.231,0,0,1,.738.925,5.167,5.167,0,0,1,.452,1.169Zm1.169-2.441h4.641V11.219h2.565V-1.219h4.659V-3.437H135.607Zm13.774,12.438h2.565V-3.437h-2.565ZM163.553-1.219A3.962,3.962,0,0,1,164.939.043a5.685,5.685,0,0,1,.789,1.8,8.321,8.321,0,0,1,0,4.1,5.685,5.685,0,0,1-.789,1.8A3.962,3.962,0,0,1,163.553,9a4.562,4.562,0,0,1-4.045,0,3.962,3.962,0,0,1-1.385-1.262,5.686,5.686,0,0,1-.789-1.8,8.321,8.321,0,0,1,0-4.1,5.686,5.686,0,0,1,.789-1.8,3.962,3.962,0,0,1,1.385-1.262,4.562,4.562,0,0,1,4.045,0m-4.967-1.95a6.58,6.58,0,0,0-2.207,1.663A7.38,7.38,0,0,0,154.993.935a9,9,0,0,0-.483,2.955,9.055,9.055,0,0,0,.483,2.976,7.392,7.392,0,0,0,1.385,2.444,6.52,6.52,0,0,0,2.207,1.652,7.483,7.483,0,0,0,5.89,0,6.52,6.52,0,0,0,2.207-1.652,7.392,7.392,0,0,0,1.385-2.444,9.055,9.055,0,0,0,.483-2.976,9,9,0,0,0-.483-2.955,7.38,7.38,0,0,0-1.385-2.441,6.58,6.58,0,0,0-2.207-1.663,7.34,7.34,0,0,0-5.89,0m12.407,14.388h2.441V.441h.062l6.671,10.778h2.709V-3.437h-2.441v10.8h-.041L173.7-3.437h-2.709Z" transform="translate(0 3.786)" fill="#fff"/>
      </g>
      <g id="Group_1808" data-name="Group 1808" transform="translate(217.649 318.637)">
        <path id="Path_1152" data-name="Path 1152" d="M0,6.182A5.429,5.429,0,0,0,.514,8.533a4.591,4.591,0,0,0,1.313,1.629,5.485,5.485,0,0,0,1.93.946,8.751,8.751,0,0,0,2.359.308,9.026,9.026,0,0,0,2.136-.257,5.785,5.785,0,0,0,1.868-.812,4.245,4.245,0,0,0,1.323-1.426,4.152,4.152,0,0,0,.5-2.1,3.97,3.97,0,0,0-.172-1.151,3.765,3.765,0,0,0-.535-1.077,3.926,3.926,0,0,0-.894-.892,4.216,4.216,0,0,0-1.252-.617c-.19-.054-.509-.141-.953-.257s-.9-.236-1.365-.36L5.512,2.129c-.378-.1-.594-.162-.648-.175A3.123,3.123,0,0,1,3.6,1.286,1.572,1.572,0,0,1,3.12.066a1.577,1.577,0,0,1,.257-.925,1.9,1.9,0,0,1,.645-.583,2.948,2.948,0,0,1,.863-.308,4.779,4.779,0,0,1,.923-.093A3.832,3.832,0,0,1,8-1.258a2.46,2.46,0,0,1,.964,2h2.567a4.333,4.333,0,0,0-.452-2.02A4.36,4.36,0,0,0,9.863-2.746,5.328,5.328,0,0,0,8.077-3.64a7.7,7.7,0,0,0-2.166-.3,7.643,7.643,0,0,0-1.95.257,5.36,5.36,0,0,0-1.722.792A4.115,4.115,0,0,0,1.015-1.546,3.831,3.831,0,0,0,.555.374,4.191,4.191,0,0,0,.709,1.5a3.074,3.074,0,0,0,.522,1.046,3.739,3.739,0,0,0,1,.894,5.46,5.46,0,0,0,1.57.645q1.519.412,2.554.668A17.477,17.477,0,0,1,8.169,5.3,2.132,2.132,0,0,1,9,5.863,1.746,1.746,0,0,1,9.38,7.1a2.1,2.1,0,0,1-.164.812,1.8,1.8,0,0,1-.532.707,2.872,2.872,0,0,1-.966.5,4.611,4.611,0,0,1-1.437.2,5.739,5.739,0,0,1-1.447-.175,3.376,3.376,0,0,1-1.18-.555,2.587,2.587,0,0,1-.8-.974,3.3,3.3,0,0,1-.288-1.437Zm14.347,4.885h2.441V-.243h.041L20.9,11.067h2.112L27.073-.243h.041v11.31h2.441V-3.589H25.986L22.044,7.886H22L17.96-3.589H14.347Zm16.789,0h2.649l1.375-3.88h5.849l1.375,3.88h2.75L39.49-3.589H36.761Zm6.939-12.13h.062l2.195,6.3H35.857Zm8.66,12.13H49.3V5.033h3.775a3.91,3.91,0,0,1,1.447.226,1.9,1.9,0,0,1,.894.707,3.029,3.029,0,0,1,.452,1.21,10.576,10.576,0,0,1,.121,1.735c0,.357.018.727.051,1.11a2.44,2.44,0,0,0,.339,1.046h2.75a3.091,3.091,0,0,1-.6-1.508,12.9,12.9,0,0,1-.2-2.351,4.126,4.126,0,0,0-.216-1.437,2.812,2.812,0,0,0-.545-.933,2.116,2.116,0,0,0-.707-.524,2.737,2.737,0,0,0-.709-.206V4.067q.185-.062.586-.247a2.737,2.737,0,0,0,.809-.6,3.771,3.771,0,0,0,.72-1.108A4.261,4.261,0,0,0,58.579.374a3.653,3.653,0,0,0-1.21-2.917,5.445,5.445,0,0,0-3.634-1.046h-7ZM49.3-1.494h4.166a5.484,5.484,0,0,1,.953.082,2.06,2.06,0,0,1,.822.329,1.668,1.668,0,0,1,.565.686,2.728,2.728,0,0,1,.2,1.138A2.264,2.264,0,0,1,55.377,2.5a2.665,2.665,0,0,1-1.868.586H49.3Zm10.323.123h4.639V11.067h2.567V-1.371H71.49V-3.589H59.625ZM82.532,11.067h2.852L90.393-3.589H87.785L84.03,8.009h-.041l-3.675-11.6H77.647Zm9.524,0h2.565V-3.589H92.056Zm5.911,0H108.66V8.849h-8.128V4.56h7.391V2.466h-7.391V-1.371h7.984V-3.589H97.967Zm15.558,0h2.647l3-11.207h.041l2.937,11.207h2.606l4.042-14.656h-2.606L123.459,7.618h-.041L120.545-3.589h-2.629L114.961,7.618h-.041L112.273-3.589h-2.608Z" transform="translate(0 3.938)" fill="#fff"/>
      </g>
      <g id="Group_1809" data-name="Group 1809" transform="translate(45.617 78.452)">
        <path id="Path_1153" data-name="Path 1153" d="M.581.077C.26.077-.051.041-.37.036V49.89H3.5V-.049C2.534,0,1.568.077.581.077" transform="translate(0.37 0.049)" fill="#fff"/>
      </g>
      <g id="Group_1810" data-name="Group 1810" transform="translate(49.979 35.859)">
        <path id="Path_1154" data-name="Path 1154" d="M25.5,0c.077.676.085,1.367.121,2.053L59.991,14.059V63.893l-74.06,25.868V42.394c-.72.075-1.444.128-2.174.177V92.534L62.165,65.145V12.808Z" transform="translate(16.243)" fill="#fff"/>
      </g>
    </g>
    <g id="Group_1812" data-name="Group 1812" transform="translate(24.587 -90.275)">
      <path id="Path_1156" data-name="Path 1156" d="M4.212,9.617,13.4,1.745,4.212-6.126v4.4H-2.683V5.22H4.212Z" transform="translate(2.683 6.126)" fill="#fff"/>
    </g>
    <g id="Group_1817" data-name="Group 1817" transform="translate(0 -129.967)" clip-path="url(#clip-path)">
      <g id="Group_1813" data-name="Group 1813" transform="translate(0.001 0)">
        <path id="Path_1157" data-name="Path 1157" d="M60.465,44.963,46.518,33.01a35.626,35.626,0,0,0,7.72-21.91c0-21.913-20.805-39.742-46.377-39.742S-38.517-10.813-38.517,11.1-17.712,50.845,7.86,50.845A50.422,50.422,0,0,0,40.3,39.45L53.6,50.845ZM4.1,45.094a43.647,43.647,0,0,1-19.983-6.622V-7.472L4.1-10.224Zm6.409.049c-.881.049-1.755.113-2.649.113-.64,0-1.264-.057-1.9-.082v-55.38l40.9,14.286a29.6,29.6,0,0,1,.681,4.086L10.51-4.771ZM21.92,26.794l-9.187-7.871,9.187-7.874v4.4h6.895v6.946H21.92Z" transform="translate(38.517 28.642)" fill="#fff"/>
      </g>
      <g id="Group_1814" data-name="Group 1814" transform="translate(219.94 195.381)">
        <path id="Path_1158" data-name="Path 1158" d="M81.37,0h-133.2V46.12h4.194V3.767H77.176V72.644H61.654L36.732,24.663,24.762,45.17,5.694,8.457l-22,37.686H-6.168c4.109,0,7.442,2.994,7.442,6.684V76.413H57.661L70.6,86.025h6.566l.008-.008-12.934-9.6H81.37ZM9,26.785,6.046,39.8.5,29.293l-6.836,3.834L5.583,12.7l9.75,18.773ZM39.235,39.131l-2.249,9.912-4.227-8-4.788,2.685,8.65-14.823,6.992,13.466Z" transform="translate(51.834)" fill="#fff"/>
      </g>
      <g id="Group_1815" data-name="Group 1815" transform="translate(199.374 244.025)">
        <path id="Path_1159" data-name="Path 1159" d="M40.222,0H-20.665a4.733,4.733,0,0,0-4.957,4.453V31.377a4.733,4.733,0,0,0,4.957,4.456H40.222a4.732,4.732,0,0,0,4.957-4.456V4.453A4.731,4.731,0,0,0,40.222,0M-21.551,25.21H-22.5V10.626h.953ZM7.567,13.589l-1.2,5.284L4.116,14.607,1.341,16.164l4.842-8.3,3.958,7.622ZM19.846,18.6l-.912,4.027-1.717-3.251-1.945,1.092,3.513-6.019,2.84,5.466ZM41.4,31.377a1.091,1.091,0,0,1-1.118,1.061H29.069L18.831,12.726l-4.862,8.326L6.226,6.147-9.121,32.439H-17.28a1.094,1.094,0,0,1-1.12-1.061V4.453a1.1,1.1,0,0,1,1.12-1.061H40.286A1.093,1.093,0,0,1,41.4,4.453Z" transform="translate(25.622)" fill="#fff"/>
      </g>
      <g id="Group_1816" data-name="Group 1816" transform="translate(71.578 176.849)">
        <path id="Path_1160" data-name="Path 1160" d="M0,0V116.785L53.781,98.609V18.174ZM47.351,79.279a23.32,23.32,0,0,1-7.64,2.822A23.585,23.585,0,0,1,11.968,58.391,23.587,23.587,0,0,1,39.711,34.682a23.32,23.32,0,0,1,7.64,2.822c-9.7.37-18.115,8.984-18.115,20.887s8.411,20.52,18.115,20.887" fill="#fff"/>
      </g>
    </g>
    <g id="Group_1818" data-name="Group 1818" transform="translate(30.753 60.448)">
      <path id="Path_1162" data-name="Path 1162" d="M0,0V88.4l33.8-11.42V11.42ZM10.69,54.629l-3,.26V51.522l3-.177Zm0-5.708-3,.118V45.671l3-.036Zm0-5.71-3-.023V39.822l3,.105Zm0-5.708-3-.167V33.97l3,.249ZM15.884,59.64l-2.739.367V56.79l2.739-.293Zm0-5.461-2.739.236V51.2l2.739-.162Zm0-5.463-2.739.108V45.607l2.739-.033Zm0-5.461-2.739-.023V40.015l2.739.1Zm0-5.461-2.739-.154V34.423l2.739.229Zm0-5.463-2.739-.283V28.831l2.739.36Zm4.764,31.9-2.516.457V61.611l2.516-.388Zm0-5.235-2.516.337V56.256l2.516-.27Zm0-5.235-2.516.218V50.9l2.516-.152Zm0-5.237-2.516.1V45.547l2.516-.031Zm0-5.235-2.516-.021V40.192l2.516.09Zm0-5.235-2.516-.139V34.836l2.516.211Zm0-5.235-2.516-.26V29.484l2.516.329Zm0-5.235-2.516-.38V24.128l2.516.45Zm4.384,35.846-2.315.421V60.9l2.315-.357Zm0-5.027-2.315.311V55.765l2.315-.247Zm0-25.133-2.315-.239V30.082l2.315.3Zm0-5.027L22.717,27.9V24.945l2.315.411ZM29.083,62.7l-2.141.388v-2.84l2.141-.332Zm0-33.839-2.141-.324V25.7l2.141.38Z" fill="#fff"/>
    </g>
    <g id="Group_1819" data-name="Group 1819" transform="translate(0 81.193)">
      <path id="Path_1163" data-name="Path 1163" d="M0,31.173l21.779-4.752V14.413l-5.62.576v7.458l-10.541,2.3V-13.428l10.541,2.3v7.46l5.62.576V-15.106L0-19.858Z" transform="translate(0 19.858)" fill="#fff"/>
    </g>
    <g id="Group_1820" data-name="Group 1820" transform="translate(12.014 99.318)">
      <path id="Path_1164" data-name="Path 1164" d="M3.766,2.523H-2.4V9.047H3.766v4.127l8.213-7.391L3.766-1.607Z" transform="translate(2.399 1.607)" fill="#fff"/>
    </g>
    <g id="Group_1821" data-name="Group 1821" transform="translate(210.395 -109.648)">
      <path id="Path_1165" data-name="Path 1165" d="M87.2,7.964H20.352V-5.073H15.857V7.964h-71.4V89.977h71.4v13.037h4.495V89.977H87.2ZM15.852,85.932H-51.056V12.009H15.852Z" transform="translate(55.548 5.073)" fill="#fff"/>
    </g>
    <g id="Group_1822" data-name="Group 1822" transform="translate(218.814 -88.922)">
      <path id="Path_1166" data-name="Path 1166" d="M35.862,0H22.615l-45.46,40.906V65.744L35.862,12.918Z" transform="translate(22.845)" fill="#fff"/>
    </g>
    <g id="Group_1823" data-name="Group 1823" transform="translate(218.814 -88.922)">
      <path id="Path_1167" data-name="Path 1167" d="M0,0V34.479L38.319,0Z" fill="#fff"/>
    </g>
    <g id="Group_1824" data-name="Group 1824" transform="translate(243.862 -52.573)">
      <path id="Path_1168" data-name="Path 1168" d="M20.561,18.5V-11.785L-13.1,18.5Z" transform="translate(13.098 11.785)" fill="#fff"/>
    </g>
  </g>
</svg>
