<svg xmlns="http://www.w3.org/2000/svg" width="280.781" height="41.013" viewBox="0 0 382.781 41.013">
  <g id="Group_36" data-name="Group 36" transform="translate(0 33.783)">
    <path id="Path_43" data-name="Path 43" d="M259,2.41H272.67V-11.261H259Z" transform="translate(55.428 4.82)" fill="#ffffff"></path>
    <path id="Path_44" data-name="Path 44" d="M281.521-8.851h27.341V-22.522H281.521Z" transform="translate(60.247 2.41)" fill="#ffffff"></path>
    <path id="Path_45" data-name="Path 45" d="M304.043,2.41h13.671V-11.261H304.043Z" transform="translate(65.067 4.82)" fill="#ffffff"></path>
    <path id="Path_46" data-name="Path 46" d="M94.907-22.522H67.565V-8.851H94.907Z" transform="translate(14.459 2.41)" fill="#ffffff"></path>
    <path id="Path_47" data-name="Path 47" d="M33.783-8.851H61.124V-22.522H33.783Z" transform="translate(7.23 2.41)" fill="#ffffff"></path>
    <path id="Path_48" data-name="Path 48" d="M56.3,2.41H69.975V-11.261H56.3Z" transform="translate(12.049 4.82)" fill="#ffffff"></path>
    <path id="Path_49" data-name="Path 49" d="M112.608-8.851h13.671V-22.522H112.608Z" transform="translate(24.099 2.41)" fill="#ffffff"></path>
    <path id="Path_50" data-name="Path 50" d="M236.478,2.41h13.671V-11.261H236.478Z" transform="translate(50.608 4.82)" fill="#ffffff"></path>
    <path id="Path_51" data-name="Path 51" d="M236.478-20.112h13.671V-33.783H236.478Z" transform="translate(50.608 0)" fill="#ffffff"></path>
    <path id="Path_52" data-name="Path 52" d="M123.869-20.112h13.672V-33.783H123.869Z" transform="translate(26.509 0)" fill="#ffffff"></path>
    <path id="Path_53" data-name="Path 53" d="M241.3-22.522H213.957V-8.851H241.3Z" transform="translate(45.788 2.41)" fill="#ffffff"></path>
    <path id="Path_54" data-name="Path 54" d="M101.348,2.41h13.67V-11.261h-13.67Z" transform="translate(21.689 4.82)" fill="#ffffff"></path>
    <path id="Path_55" data-name="Path 55" d="M101.348-20.112h13.67V-33.783h-13.67Z" transform="translate(21.689 0)" fill="#ffffff"></path>
    <path id="Path_56" data-name="Path 56" d="M123.869,2.41h13.672V-11.261H123.869Z" transform="translate(26.509 4.82)" fill="#ffffff"></path>
    <path id="Path_57" data-name="Path 57" d="M162.472-22.522H135.131V-8.851h27.341Z" transform="translate(28.919 2.41)" fill="#ffffff"></path>
    <path id="Path_58" data-name="Path 58" d="M157.652,2.41h13.671V-11.261H157.652Z" transform="translate(33.739 4.82)" fill="#ffffff"></path>
    <path id="Path_59" data-name="Path 59" d="M202.7,2.41h13.671V-11.261H202.7Z" transform="translate(43.378 4.82)" fill="#ffffff"></path>
    <path id="Path_60" data-name="Path 60" d="M168.913-20.112h13.671V-33.783H168.913Z" transform="translate(36.149 0)" fill="#ffffff"></path>
    <path id="Path_61" data-name="Path 61" d="M193.844-22.522h-13.67V-8.851h13.67Z" transform="translate(38.558 2.41)" fill="#ffffff"></path>
    <path id="Path_62" data-name="Path 62" d="M0-8.851H27.342V-22.522H0Z" transform="translate(0 2.41)" fill="#ffffff"></path>
  </g>
</svg>