<svg xmlns="http://www.w3.org/2000/svg" xmlns:xlink="http://www.w3.org/1999/xlink" width="253.008" height="437.318" viewBox="0 0 253.008 437.318">
  <defs>
    <clipPath id="clip-path">
      <path id="Path_1124" data-name="Path 1124" d="M0,344.129H253.008V-93.189H0Z" transform="translate(0 93.189)" fill="none"/>
    </clipPath>
  </defs>
  <g id="Group_1794" data-name="Group 1794" transform="translate(0 93.189)">
    <g id="Group_1778" data-name="Group 1778" transform="translate(0 295.499)">
      <path id="Path_1121" data-name="Path 1121" d="M32.77,0,25.9,21.179h-.07L19.123,0H14.252l8.921,26.758h5.209L37.528,0ZM1.4,0-8.874,26.758H-4.04l2.511-7.081H9.156l2.511,7.081h5.021L6.382,0ZM3.8,4.608H3.9L7.917,16.115H-.253Z" transform="translate(8.874)" fill="#fff"/>
    </g>
    <g id="Group_1781" data-name="Group 1781" transform="translate(0 -93.189)" clip-path="url(#clip-path)">
      <g id="Group_1779" data-name="Group 1779" transform="translate(2.999 245.019)">
        <path id="Path_1122" data-name="Path 1122" d="M0,21.06H4.683V8.99H16.866V21.06h4.688V-5.7H16.866V4.945H4.683V-5.7H0Zm27.547,0h11.1a12.5,12.5,0,0,0,5.322-1.051,9.843,9.843,0,0,0,3.67-2.867,12.226,12.226,0,0,0,2.121-4.252,19.038,19.038,0,0,0,.69-5.209,19.1,19.1,0,0,0-.69-5.214,12.226,12.226,0,0,0-2.121-4.252,9.89,9.89,0,0,0-3.67-2.867A12.5,12.5,0,0,0,38.645-5.7h-11.1ZM32.235-1.878h4.608a11.69,11.69,0,0,1,4.482.732A6.59,6.59,0,0,1,44.061.876a7.273,7.273,0,0,1,1.347,3.036,18.687,18.687,0,0,1,.357,3.768,18.639,18.639,0,0,1-.357,3.764,7.247,7.247,0,0,1-1.347,3.036,6.6,6.6,0,0,1-2.736,2.027,11.788,11.788,0,0,1-4.482.727H32.235ZM54.911,21.06h4.458V.407h.075L66.868,21.06h3.857L78.149.407h.075V21.06h4.458V-5.7H76.16L68.965,15.25H68.89L61.5-5.7H54.911Zm33.769,0h4.683V-5.7H88.68Z" transform="translate(0 5.703)" fill="#fff"/>
      </g>
      <g id="Group_1780" data-name="Group 1780" transform="translate(2.811 110.876)">
        <path id="Path_1123" data-name="Path 1123" d="M0,13.981a11.734,11.734,0,0,0,.788,4.5,8.623,8.623,0,0,0,2.229,3.205,9.307,9.307,0,0,0,3.468,1.933,15,15,0,0,0,4.5.634,15.028,15.028,0,0,0,4.5-.634,9.324,9.324,0,0,0,3.463-1.933,8.633,8.633,0,0,0,2.234-3.205,11.827,11.827,0,0,0,.784-4.5V-3.148H17.279V12.446c0,.9-.042,1.811-.131,2.736a6.264,6.264,0,0,1-.751,2.492,4.784,4.784,0,0,1-1.872,1.816,7.257,7.257,0,0,1-3.543.713,7.269,7.269,0,0,1-3.543-.713,4.784,4.784,0,0,1-1.872-1.816,6.264,6.264,0,0,1-.751-2.492c-.084-.924-.131-1.84-.131-2.736V-3.148H0Zm26.125.713a9.876,9.876,0,0,0,.939,4.289,8.36,8.36,0,0,0,2.4,2.98,10.114,10.114,0,0,0,3.52,1.727,16.041,16.041,0,0,0,4.313.558,16.479,16.479,0,0,0,3.9-.465A10.539,10.539,0,0,0,44.6,22.3a7.854,7.854,0,0,0,2.421-2.6,7.588,7.588,0,0,0,.915-3.843,7.071,7.071,0,0,0-.319-2.1,6.685,6.685,0,0,0-.971-1.966,7.188,7.188,0,0,0-1.633-1.633,7.749,7.749,0,0,0-2.285-1.122c-.352-.1-.929-.258-1.741-.469s-1.642-.432-2.492-.657-1.619-.432-2.309-.619S35.107,7,35.008,6.97a5.668,5.668,0,0,1-2.3-1.215,2.861,2.861,0,0,1-.882-2.229,2.881,2.881,0,0,1,.469-1.689A3.372,3.372,0,0,1,33.469.771,5.336,5.336,0,0,1,35.046.208,8.728,8.728,0,0,1,36.731.039,7.032,7.032,0,0,1,40.743,1.1,4.536,4.536,0,0,1,42.5,4.76h4.688a7.947,7.947,0,0,0-.826-3.693,8.053,8.053,0,0,0-2.229-2.68,9.809,9.809,0,0,0-3.261-1.628,14.064,14.064,0,0,0-3.956-.544,13.753,13.753,0,0,0-3.562.469,9.906,9.906,0,0,0-3.149,1.441A7.516,7.516,0,0,0,27.979.583a6.942,6.942,0,0,0-.84,3.5,7.659,7.659,0,0,0,.277,2.065,5.758,5.758,0,0,0,.957,1.91,6.784,6.784,0,0,0,1.816,1.628,10.026,10.026,0,0,0,2.867,1.183q2.773.753,4.669,1.22a31.985,31.985,0,0,1,3.318.99,3.958,3.958,0,0,1,1.516,1.032,3.189,3.189,0,0,1,.695,2.267,3.842,3.842,0,0,1-.3,1.483,3.359,3.359,0,0,1-.976,1.291,5.3,5.3,0,0,1-1.76.92,8.441,8.441,0,0,1-2.623.357,10.453,10.453,0,0,1-2.642-.319A6.165,6.165,0,0,1,32.8,19.1a4.717,4.717,0,0,1-1.464-1.779,5.971,5.971,0,0,1-.526-2.623ZM57.083.677h7.645a4.522,4.522,0,0,1,2.924.821,3.5,3.5,0,0,1,1.014,2.849A3.4,3.4,0,0,1,67.539,7.1a4.175,4.175,0,0,1-2.811.957H57.083ZM52.4,23.615H64.69a15.233,15.233,0,0,0,4.463-.582,8.9,8.9,0,0,0,3.074-1.577,5.987,5.987,0,0,0,1.76-2.36,7.642,7.642,0,0,0,.563-2.942A7.775,7.775,0,0,0,73.278,11.6a5.861,5.861,0,0,0-3.75-2.342V9.185a6.387,6.387,0,0,0,2.83-2.234,5.949,5.949,0,0,0,.99-3.463A5.867,5.867,0,0,0,71.176-1.5,9.322,9.322,0,0,0,65.4-3.148h-13Zm4.683-12.183h8.283a4.765,4.765,0,0,1,3.318,1.07,3.892,3.892,0,0,1,1.183,3.05,4.072,4.072,0,0,1-1.183,3.13,4.648,4.648,0,0,1-3.318,1.108H57.083Z" transform="translate(0 3.786)" fill="#fff"/>
      </g>
    </g>
    <g id="Group_1782" data-name="Group 1782" transform="translate(124.861 264.161)">
      <path id="Path_1125" data-name="Path 1125" d="M0,0H43.751" fill="none" stroke="#fff" stroke-width="0.385"/>
    </g>
    <g id="Group_1783" data-name="Group 1783" transform="translate(124.861 -13.222)">
      <path id="Path_1126" data-name="Path 1126" d="M0,0H43.751" transform="translate(0 0)" fill="none" stroke="#fff" stroke-width="0.385"/>
    </g>
    <g id="Group_1784" data-name="Group 1784" transform="translate(124.861 125.47)">
      <path id="Path_1127" data-name="Path 1127" d="M0,0H43.751" fill="none" stroke="#fff" stroke-width="0.385"/>
    </g>
    <g id="Group_1788" data-name="Group 1788" transform="translate(0 -93.189)" clip-path="url(#clip-path)">
      <g id="Group_1785" data-name="Group 1785" transform="translate(17.203 350.366)">
        <path id="Path_1128" data-name="Path 1128" d="M4.557,0a5.789,5.789,0,1,0,5.791,5.791A5.791,5.791,0,0,0,4.557,0" transform="translate(1.234)" fill="#fff"/>
      </g>
      <g id="Group_1786" data-name="Group 1786" transform="translate(44.653 350.366)">
        <path id="Path_1129" data-name="Path 1129" d="M4.553,0a5.789,5.789,0,1,0,5.791,5.791A5.787,5.787,0,0,0,4.553,0" transform="translate(1.233)" fill="#fff"/>
      </g>
      <path id="Path_1130" data-name="Path 1130" d="M.056,23.358H100.412v-45.5H.056Zm0-45.5M22.788,9.505a8.9,8.9,0,0,1-8.9-8.9,8.9,8.9,0,0,1,8.9-8.9,8.9,8.9,0,1,1,0,17.8m27.444,0a8.9,8.9,0,1,1,8.9-8.9,8.9,8.9,0,0,1-8.9,8.9m27.448,0a8.9,8.9,0,1,1,8.9-8.9,8.9,8.9,0,0,1-8.9,8.9" transform="translate(0.207 355.548)" fill="#fff"/>
      <g id="Group_1787" data-name="Group 1787" transform="translate(72.094 350.366)">
        <path id="Path_1131" data-name="Path 1131" d="M4.557,0a5.789,5.789,0,1,0,5.791,5.791A5.791,5.791,0,0,0,4.557,0" transform="translate(1.234)" fill="#fff"/>
      </g>
    </g>
    <g id="Group_1789" data-name="Group 1789" transform="translate(16.849 114.794)">
      <path id="Path_1133" data-name="Path 1133" d="M47.56,0H43.28V4.073H31.487V0h-4.28V4.073h-11.8V0h-4.28V4.073H-.664V0h-4.28V4.073h-7.936V9.179H54.3V4.073H47.56Z" transform="translate(12.879)" fill="#fff"/>
    </g>
    <g id="Group_1790" data-name="Group 1790" transform="translate(0 -93.189)" clip-path="url(#clip-path)">
      <path id="Path_1134" data-name="Path 1134" d="M.056-7.389H100.412V-52.722H.056Zm0-45.332M91.467-18.291a2.244,2.244,0,0,1-2.248,2.243H11.244A2.243,2.243,0,0,1,9-18.291v-9.752l8.438-13.68a4.015,4.015,0,0,1,3.646-2.337h58.3a4.008,4.008,0,0,1,3.642,2.337l8.442,13.68Z" transform="translate(0.207 242.626)" fill="#fff"/>
      <path id="Path_1135" data-name="Path 1135" d="M.056-35.839H100.412V-81.171H.056Zm0-45.332M91.467-49.208A4.715,4.715,0,0,1,86.756-44.5H13.707A4.711,4.711,0,0,1,9-49.208V-67.8a4.707,4.707,0,0,1,4.707-4.707H86.756A4.711,4.711,0,0,1,91.467-67.8Z" transform="translate(0.207 137.569)" fill="#fff"/>
    </g>
    <g id="Group_1791" data-name="Group 1791" transform="translate(16.85 -19.298)">
      <path id="Path_1137" data-name="Path 1137" d="M0,7.5H6.744V11.57h4.28V7.5H22.816V11.57H27.1V7.5H38.889V11.57h4.28V7.5h11.8V11.57h4.28V7.5h7.931V-2.03H0Z" transform="translate(0 2.03)" fill="#fff"/>
    </g>
    <g id="Group_1793" data-name="Group 1793" transform="translate(0 -93.189)" clip-path="url(#clip-path)">
      <g id="Group_1792" data-name="Group 1792" transform="translate(166.542 2.344)">
        <path id="Path_1138" data-name="Path 1138" d="M58.882,0H-15.945V432.625H70.52" transform="translate(15.945)" fill="none" stroke="#fff" stroke-width="1"/>
      </g>
    </g>
  </g>
</svg>
