<svg xmlns="http://www.w3.org/2000/svg" xmlns:xlink="http://www.w3.org/1999/xlink" width="379.191" height="155.945" viewBox="0 0 379.191 155.945">
  <defs>
    <clipPath id="clip-path">
      <path id="Path_172" data-name="Path 172" d="M0,97.023H379.191V-58.922H0Z" transform="translate(0 58.922)" fill="none"/>
    </clipPath>
  </defs>
  <g id="Group_201" data-name="Group 201" transform="translate(0 58.922)">
    <g id="Group_202" data-name="Group 202" transform="translate(0 -58.922)" clip-path="url(#clip-path)">
      <g id="Group_201-2" data-name="Group 201" transform="translate(319.425 0)">
        <path id="Path_171" data-name="Path 171" d="M0,0V129.952L59.766,109.73V20.223ZM52.62,88.22a25.952,25.952,0,0,1-8.488,3.139C28.557,94.138,13.3,82.586,13.3,64.978S28.557,35.817,44.133,38.593a25.9,25.9,0,0,1,8.488,3.142c-10.782.41-20.13,9.994-20.13,23.243S41.838,87.81,52.62,88.22" fill="#fff"/>
      </g>
    </g>
    <g id="Group_203" data-name="Group 203" transform="translate(274.056 -43.826)">
      <path id="Path_173" data-name="Path 173" d="M0,0V98.368L37.558,85.658V12.709ZM11.881,60.791l-3.332.288V57.331l3.332-.2Zm0-6.355-3.332.132V50.821l3.332-.04Zm0-6.352-3.332-.026V44.313l3.332.116Zm0-6.352-3.332-.185V37.8l3.332.275Zm5.772,24.632-3.046.41V63.194l3.046-.326Zm0-6.077-3.046.265V56.971l3.046-.18Zm0-6.077-3.046.119V50.749l3.046-.037Zm0-6.079-3.046-.024V44.527l3.046.109Zm0-6.077-3.046-.169V38.3l3.046.254Zm0-6.077-3.046-.315V32.083l3.046.4Zm5.293,35.5-2.795.511v-3.43l2.795-.431Zm0-5.825-2.795.376V62.6l2.795-.3Zm0-5.825-2.795.243v-3.43l2.795-.167Zm0-5.825-2.795.109V50.683l2.795-.034Zm0-5.825-2.795-.024V44.725l2.795.1Zm0-5.825L20.151,42.2v-3.43L22.946,39Zm0-5.825-2.795-.288v-3.43l2.795.365Zm0-5.825-2.795-.423V26.85l2.795.5Zm4.872,39.89-2.575.468V67.77l2.575-.4Zm0-5.595-2.575.347v-3.29l2.575-.275Zm0-27.967-2.575-.267V33.475l2.575.336Zm0-5.592-2.575-.389v-3.29l2.575.458Zm4.5,38.334-2.379.434v-3.16l2.379-.368Zm0-37.656-2.379-.357V28.594l2.379.426Z" fill="#fff"/>
    </g>
    <g id="Group_204" data-name="Group 204" transform="translate(239.881 -20.739)">
      <path id="Path_174" data-name="Path 174" d="M11.172,24.123v8.3L-.542,34.982V-7.5L11.172-4.939v8.3L17.416,4V-9.365l-24.2-5.285V42.134l24.2-5.285V23.483Z" transform="translate(6.785 14.65)" fill="#fff"/>
    </g>
    <g id="Group_205" data-name="Group 205" transform="translate(253.23 -0.571)">
      <path id="Path_175" data-name="Path 175" d="M4.263,2.859H-2.589v7.26H4.263v4.595l9.128-8.226L4.263-1.736Z" transform="translate(2.589 1.736)" fill="#fff"/>
    </g>
    <g id="Group_209" data-name="Group 209" transform="translate(0 -58.922)" clip-path="url(#clip-path)">
      <g id="Group_206" data-name="Group 206" transform="translate(0.001 0)">
        <path id="Path_176" data-name="Path 176" d="M134.917,0H-81.935V138.461h27.967l-21.139,17.47.011.013H-64.4l21.155-17.484H96.231l21.155,17.484h10.692l.011-.013-21.139-17.47h27.967ZM-41.7,64.2-47,58.9a22.481,22.481,0,0,1-5.921.685,16.925,16.925,0,0,1-8.038-1.62A10.938,10.938,0,0,1-65.542,53.3,20.615,20.615,0,0,1-67.6,46a86.208,86.208,0,0,1-.466-9.348A86.446,86.446,0,0,1-67.6,27.34a20.7,20.7,0,0,1,2.056-7.323A11.538,11.538,0,0,1-60.96,15.25a16.134,16.134,0,0,1,8.038-1.715,16.141,16.141,0,0,1,8.038,1.715A11.522,11.522,0,0,1-40.3,20.017a20.7,20.7,0,0,1,2.059,7.323,86.447,86.447,0,0,1,.466,9.316A77.165,77.165,0,0,1-38.4,46.938a17.787,17.787,0,0,1-2.8,7.792l4.8,4.674Zm31.813-5.3H-34.756v-44.5h8.975V51.551h15.89Zm27.919,0H-7.461v-44.5H17.4v7.355H1.513V32.231H16.47v7.355H1.513V51.551H18.028ZM49.256,46.221a19.484,19.484,0,0,1-2.461,7.135,10.794,10.794,0,0,1-4.674,4.176A17.53,17.53,0,0,1,34.7,58.9H20.559v-44.5H35.266a16.064,16.064,0,0,1,7.54,1.527A10.884,10.884,0,0,1,47.263,20.3a19.413,19.413,0,0,1,2.149,6.823,64.533,64.533,0,0,1,.561,8.914,63.372,63.372,0,0,1-.717,10.187" transform="translate(81.935)" fill="#fff"/>
      </g>
      <g id="Group_207" data-name="Group 207" transform="translate(111.467 21.015)">
        <path id="Path_177" data-name="Path 177" d="M6.34,2.384A5.927,5.927,0,0,0,4.034-.482,7.572,7.572,0,0,0-.047-1.448h-3.8V29.835H.138a7.727,7.727,0,0,0,3.8-.81,5.572,5.572,0,0,0,2.273-2.681,15.683,15.683,0,0,0,1.122-4.923q.278-3.049.281-7.6,0-3.8-.249-6.667A16.511,16.511,0,0,0,6.34,2.384" transform="translate(3.85 1.448)" fill="#fff"/>
      </g>
      <g id="Group_208" data-name="Group 208" transform="translate(22.844 20.144)">
        <path id="Path_178" data-name="Path 178" d="M7,2.365A5.688,5.688,0,0,0,5.13-.533a5.27,5.27,0,0,0-3.21-.9,5.27,5.27,0,0,0-3.21.9,5.688,5.688,0,0,0-1.869,2.9,21.577,21.577,0,0,0-.873,5.111q-.218,3.116-.217,7.6t.217,7.636a21.187,21.187,0,0,0,.873,5.111,5.691,5.691,0,0,0,1.869,2.866,5.27,5.27,0,0,0,3.21.9,5.27,5.27,0,0,0,3.21-.9A5.691,5.691,0,0,0,7,27.823a21.072,21.072,0,0,0,.871-5.111q.218-3.148.22-7.636t-.22-7.6A21.457,21.457,0,0,0,7,2.365" transform="translate(4.25 1.436)" fill="#fff"/>
      </g>
    </g>
  </g>
</svg>
