<svg xmlns="http://www.w3.org/2000/svg" xmlns:xlink="http://www.w3.org/1999/xlink" width="257.391" height="70.541" viewBox="0 0 257.391 70.541">
  <defs>
    <clipPath id="clip-path">
      <path id="Path_1143" data-name="Path 1143" d="M0,46.089H257.39V-24.452H0Z" transform="translate(0 24.452)" fill="#fff"/>
    </clipPath>
  </defs>
  <g id="Group_1804" data-name="Group 1804" transform="translate(0 24.452)">
    <g id="Group_1796" data-name="Group 1796" transform="translate(184.787 -7.718)">
      <path id="Path_1140" data-name="Path 1140" d="M0,23.007H9.708V12.223H28.445V3.964H9.708v-7.87H30.439v-8.3H0Z" transform="translate(0 12.206)" fill="#fff"/>
    </g>
    <path id="Path_1141" data-name="Path 1141" d="M76.559,10.266h9.05V-15.311h-9.05Z" transform="translate(144.306 17.23)" fill="#fff"/>
    <g id="Group_1798" data-name="Group 1798" transform="translate(0 -24.452)" clip-path="url(#clip-path)">
      <g id="Group_1797" data-name="Group 1797" transform="translate(220.206 14.776)">
        <path id="Path_1142" data-name="Path 1142" d="M3.387,0C.421,0-1.8,1.809-1.8,4.379c0,2.758,2.218,4.474,5.184,4.474,3.116,0,5.276-1.717,5.276-4.474C8.664,1.809,6.5,0,3.387,0" transform="translate(1.797)" fill="#fff"/>
      </g>
    </g>
    <g id="Group_1799" data-name="Group 1799" transform="translate(243.761 -24.45)">
      <path id="Path_1144" data-name="Path 1144" d="M0,0V1.229H2.138V7.241H3.592V1.229H5.732V0Z" fill="#fff"/>
    </g>
    <g id="Group_1800" data-name="Group 1800" transform="translate(250.418 -24.45)">
      <path id="Path_1145" data-name="Path 1145" d="M3.119,0,1.839,4.942.543,0h-2.2V7.241H-.308l.012-5.7,1.425,5.7H2.54l1.422-5.7.009,5.7H5.318V0Z" transform="translate(1.655)" fill="#fff"/>
    </g>
    <g id="Group_1803" data-name="Group 1803" transform="translate(0 -24.452)" clip-path="url(#clip-path)">
      <g id="Group_1801" data-name="Group 1801" transform="translate(86.006 21.723)">
        <path id="Path_1146" data-name="Path 1146" d="M4.194,1.065a2.7,2.7,0,0,0-1.067-1.2A3.5,3.5,0,0,0,1.292-.565H-2.225v11.1H1.292a3.5,3.5,0,0,0,1.835-.433,2.7,2.7,0,0,0,1.067-1.2,5.941,5.941,0,0,0,.485-1.783,16.913,16.913,0,0,0,.127-2.141,16.965,16.965,0,0,0-.127-2.138,5.918,5.918,0,0,0-.485-1.783" transform="translate(2.225 0.565)" fill="#fff"/>
      </g>
      <g id="Group_1802" data-name="Group 1802" transform="translate(0 0.135)">
        <path id="Path_1147" data-name="Path 1147" d="M144.9,0H-49.819A27.078,27.078,0,0,0-76.874,27.046V43.354A27.085,27.085,0,0,0-49.819,70.406H144.9a27.088,27.088,0,0,0,27.06-27.052V27.046A27.081,27.081,0,0,0,144.9,0M-35.744,47.872v4.841H-51.689V48.129l9.07-17.627a13.733,13.733,0,0,0,1.044-2.827,14.543,14.543,0,0,0,.43-3.644,3.359,3.359,0,0,0-.736-2.366,2.438,2.438,0,0,0-1.861-.79,2.643,2.643,0,0,0-1.91.764,3.116,3.116,0,0,0-.79,2.343v2.343h-5.4V24.187a9.361,9.361,0,0,1,.589-3.592,7.028,7.028,0,0,1,1.656-2.42A7.26,7.26,0,0,1-46.949,16.6a9.477,9.477,0,0,1,3.208-.563,9.951,9.951,0,0,1,3.058.459,6.9,6.9,0,0,1,2.544,1.477A7.671,7.671,0,0,1-36.4,20.517a9.392,9.392,0,0,1,.661,3.719,16.32,16.32,0,0,1-.56,4.125,18.6,18.6,0,0,1-1.425,3.822l-8.2,15.688Zm18.9-26.284h-6.113V52.713h-5.706V21.588h-6.061V16.444h17.881ZM.421,47.872v4.841H-15.521V48.129L-6.451,30.5a13.739,13.739,0,0,0,1.041-2.827,14.407,14.407,0,0,0,.433-3.644,3.359,3.359,0,0,0-.739-2.366,2.436,2.436,0,0,0-1.858-.79,2.639,2.639,0,0,0-1.91.764,3.116,3.116,0,0,0-.79,2.343v2.343h-5.4V24.187a9.361,9.361,0,0,1,.589-3.592,7.021,7.021,0,0,1,1.653-2.42A7.284,7.284,0,0,1-10.784,16.6a9.506,9.506,0,0,1,3.211-.563,9.933,9.933,0,0,1,3.055.459A6.908,6.908,0,0,1-1.971,17.97,7.757,7.757,0,0,1-.237,20.517a9.394,9.394,0,0,1,.658,3.719,16.313,16.313,0,0,1-.557,4.125,18.765,18.765,0,0,1-1.428,3.822l-8.2,15.688Zm16.657,4.841L12.341,37.838H9.133V52.713H3.427V16.444H12.6q4.994,0,7.131,2.521t2.143,8.173A16.991,16.991,0,0,1,21,32.9a6.756,6.756,0,0,1-3.361,3.719l5.4,16.1Zm42.884-.9h-9l-1.613-7.645c-1.148-5.429-2.207-12.021-2.409-14.583-.208,2.562-1.261,9.154-2.409,14.583L42.91,51.813h-8.9L25.612,16.6H35.669l.952,5.888c.811,4.982,1.768,11.121,2.115,15.293a147.6,147.6,0,0,1,2.619-15.252l1.2-5.928h8.96l1.206,5.928a150.772,150.772,0,0,1,2.619,15.252c.346-4.172,1.3-10.311,2.109-15.293L58.4,16.6h9.964Zm21.752,0H72.659V26.235h9.056ZM77.191,23.495c-2.971,0-5.184-1.717-5.184-4.472,0-2.573,2.213-4.382,5.184-4.382,3.116,0,5.276,1.809,5.276,4.382,0,2.755-2.161,4.472-5.276,4.472m89.559,19.857A21.875,21.875,0,0,1,144.9,65.2H84.5A27.015,27.015,0,0,0,95.62,43.351v-16.3A21.872,21.872,0,0,1,117.464,5.2H144.9a21.875,21.875,0,0,1,21.85,21.844Z" transform="translate(76.874 0)" fill="#fff"/>
      </g>
    </g>
  </g>
</svg>
